<svg width="871" height="222" viewBox="0 0 871 222" fill="none" xmlns="http://www.w3.org/2000/svg">
<path d="M157.395 14.2979C159.206 12.0921 161.018 11.7376 162.83 13.2344C164.721 14.6523 164.603 16.3854 162.476 18.4336C156.489 24.1055 151.486 28.7926 147.469 32.4951C143.53 36.1188 139.867 38.876 136.479 40.7666C130.335 44.3115 124.309 45.375 118.4 43.957C112.571 42.4603 104.299 38.9941 93.5859 33.5586C82.3997 27.8867 72.2376 24.8538 63.0996 24.46C53.9616 23.9873 45.4144 27.5716 37.458 35.2129C29.6592 42.6966 24.5781 50.2197 22.2148 57.7822C19.9303 65.266 18.9062 73.0254 19.1426 81.0605C19.694 99.9668 28.0837 115.801 44.3115 128.562C60.6182 141.245 80.7454 147.272 104.693 146.642C121.473 146.326 135.928 142.545 148.06 135.298C160.191 128.05 165.272 117.219 163.303 102.803C161.648 91.3802 155.74 85.3145 145.578 84.6055C135.416 83.8177 124.151 87.3626 111.783 95.2402C95.5553 105.56 83.7783 110.129 76.4521 108.947C69.126 107.766 58.9639 98.2337 45.9658 80.3516C44.3903 78.3034 44.3509 76.846 45.8477 75.9795C47.3444 75.113 48.8018 75.7432 50.2197 77.8701C54.9463 84.8812 61.012 87.0081 68.417 84.251C75.9007 81.415 84.1328 77.3975 93.1133 72.1982C99.179 68.8109 104.89 65.7386 110.247 62.9814C115.604 60.1455 122.418 59.7122 130.689 61.6816C138.567 63.651 146.248 67.8656 153.731 74.3252C161.294 80.7848 166.257 88.9775 168.62 98.9033C170.59 107.569 170.432 115.446 168.147 122.536C165.863 129.626 162.83 136.007 159.049 141.679C152.038 152.313 142.585 160.743 130.689 166.966C118.873 173.189 105.363 176.301 90.1592 176.301C67.708 176.301 47.0687 168.778 28.2412 153.731C9.41374 138.685 0.236328 117.888 0.708984 91.3408C1.33919 53.7646 29.4622 23.8691 85.0781 1.6543C87.7565 0.551432 90.5531 0.708984 93.4678 2.12695C117.888 14.1797 133.959 20.0879 141.679 19.8516C149.478 19.6152 154.716 17.764 157.395 14.2979ZM393.25 33.6768C389.784 37.3005 388.248 40.8454 388.642 44.3115C389.035 47.6989 391.871 50.1803 397.149 51.7559C403.924 53.804 408.414 56.4824 410.62 59.791C412.826 63.0208 414.165 66.8021 414.638 71.1348C414.716 71.9225 415.032 72.4346 415.583 72.6709C416.213 72.9072 416.843 72.9072 417.474 72.6709C427.478 66.8415 437.758 59.8698 448.314 51.7559C448.945 51.2832 449.575 51.2044 450.205 51.5195C450.835 51.8346 451.229 52.3073 451.387 52.9375C452.174 57.1914 453.75 60.8151 456.113 63.8086C458.555 66.8021 461.076 69.7562 463.676 72.6709C473.365 83.6208 477.659 95.8704 476.556 109.42C475.453 126.042 469.663 138.764 459.186 147.587C447.605 157.355 438.704 166.533 432.48 175.119C431.693 176.143 430.787 176.301 429.763 175.592C427.793 174.41 425.824 173.268 423.854 172.165C421.885 171.062 419.916 169.92 417.946 168.738C417.316 168.423 416.686 168.423 416.056 168.738C415.504 168.975 415.229 169.487 415.229 170.274C414.283 178.782 413.062 187.132 411.565 195.325C410.147 203.518 408.611 211.75 406.957 220.021C406.642 221.124 405.972 221.636 404.948 221.558C403.924 221.558 403.294 221.046 403.058 220.021C401.403 210.49 399.828 200.288 398.331 189.417C396.913 178.625 395.81 168.226 395.022 158.222C394.865 157.355 394.432 156.804 393.723 156.567C385.766 153.653 380.134 154.007 376.825 157.631C376.116 158.34 375.368 158.576 374.58 158.34C373.871 158.025 373.517 157.316 373.517 156.213C373.595 143.372 379.74 136.558 391.95 135.771C393.132 135.771 393.723 135.14 393.723 133.88V130.217C393.723 118.479 393.526 110.05 393.132 104.93C392.817 99.8092 392.541 93.5859 392.305 86.2598C392.147 82.7148 391.241 79.9971 389.587 78.1064C387.933 76.2158 386.278 74.5615 384.624 73.1436C377.455 67.2354 374.462 60.7363 375.644 53.6465C376.904 46.4779 381.591 39.1911 389.705 31.7861C391.123 30.2894 392.344 29.9743 393.368 30.8408C394.392 31.6286 394.353 32.5739 393.25 33.6768ZM416.646 140.733C416.646 141.679 417.001 142.27 417.71 142.506C421.728 144.554 425.627 146.72 429.408 149.005C433.268 151.289 437.168 153.535 441.106 155.74C442.288 156.292 443.194 156.055 443.824 155.031C446.188 151.329 448.393 146.76 450.441 141.324C452.49 135.889 453.592 129.114 453.75 121C453.908 112.571 452.253 105.048 448.787 98.4307C445.4 91.7347 441.697 85.3538 437.68 79.2881C433.505 73.4587 426.297 73.0254 416.056 77.9883C415.268 78.3822 414.874 78.973 414.874 79.7607C414.953 80.7061 414.992 82.124 414.992 84.0146L416.528 130.808C416.607 133.092 416.646 136.401 416.646 140.733Z" fill="#4285F4"/>
<path d="M184.218 18.1973C183.194 16.7005 183.272 15.5583 184.454 14.7705C185.636 13.904 186.817 14.1797 187.999 15.5977C191.465 19.9303 194.262 24.5781 196.389 29.541C196.625 30.3288 197.176 30.7227 198.043 30.7227C198.752 30.8802 199.382 30.5651 199.934 29.7773C204.503 21.5846 211.671 15.2826 221.439 10.8711C231.286 6.38086 241.252 4.56901 251.335 5.43555C253.383 5.51432 254.407 6.34147 254.407 7.91699C254.407 9.49251 253.423 10.2015 251.453 10.0439C243.182 9.49251 235.974 11.3831 229.829 15.7158C223.685 20.0485 220.652 28.3988 220.73 40.7666L220.967 67.2354C220.967 68.0231 221.282 68.6139 221.912 69.0078C222.542 69.3229 223.173 69.2835 223.803 68.8896C228.135 66.5264 232.468 63.9268 236.801 61.0908C241.212 58.2549 245.269 55.0645 248.972 51.5195C251.886 48.6048 253.541 49.1169 253.935 53.0557C254.25 55.9704 255.471 58.57 257.598 60.8545C259.725 63.139 261.694 65.3841 263.506 67.5898C274.141 81.1393 279.616 95.7917 279.931 111.547C280.482 134.707 272.329 155.189 255.471 172.992C238.613 190.717 223.291 204.266 209.505 213.641C207.614 214.98 206.196 215.177 205.251 214.231C204.384 213.365 204.66 212.341 206.078 211.159C217.186 201.312 228.372 190.559 239.637 178.9C250.98 167.242 256.14 148.769 255.116 123.481C254.644 113.556 253.107 104.221 250.508 95.4766C247.987 86.6536 243.339 79.3275 236.564 73.498C233.098 70.5833 228.293 70.6227 222.148 73.6162C221.439 73.8525 221.085 74.4434 221.085 75.3887L221.558 146.76C221.558 153.141 224.118 155.78 229.238 154.677C230.341 154.362 231.326 153.771 232.192 152.904C233.059 152.038 234.004 151.289 235.028 150.659C236.131 149.95 237.116 149.99 237.982 150.777C238.849 151.565 238.849 152.392 237.982 153.259C234.122 157.513 230.223 161.451 226.284 165.075C222.345 168.699 219.312 172.677 217.186 177.01C216.24 178.9 214.822 178.9 212.932 177.01C205.921 169.447 198.279 163.775 190.008 159.994C187.329 158.576 187.132 157.276 189.417 156.095C194.459 154.362 196.94 149.162 196.861 140.497L196.625 61.5635C196.546 50.9287 195.325 42.224 192.962 35.4492C190.677 28.6745 187.763 22.9238 184.218 18.1973ZM629.342 176.892C629.184 175.001 628.16 173.583 626.27 172.638C624.458 171.692 622.922 170.747 621.661 169.802C612.602 163.657 606.182 156.174 602.4 147.351C598.698 138.449 596.61 129.035 596.138 119.109C595.192 96.6582 601.258 79.5638 614.335 67.8262C618.983 63.651 624.34 60.2637 630.405 57.6641C636.471 54.9857 642.694 52.8193 649.075 51.165C651.045 50.7712 652.502 51.7559 653.447 54.1191L670.463 94.0586C671.251 96.1855 670.975 97.5247 669.636 98.0762H669.399L620.952 116.864C620.007 117.337 619.613 118.085 619.771 119.109C623.631 136.598 630.09 147.823 639.149 152.786C648.209 157.67 657.229 158.379 666.209 154.913C667.785 154.204 668.769 154.322 669.163 155.268C669.636 156.213 669.36 156.922 668.336 157.395C661.955 160.624 655.85 163.933 650.021 167.32C644.27 170.708 639.11 174.253 634.541 177.955C633.832 178.428 632.769 178.585 631.351 178.428C630.011 178.27 629.342 177.758 629.342 176.892ZM618.353 110.129C618.431 110.759 618.707 111.271 619.18 111.665C619.652 111.98 620.243 111.98 620.952 111.665L646.121 102.212C647.303 101.739 647.657 100.912 647.185 99.7305L632.769 64.3994C632.06 62.6663 630.642 62.43 628.515 63.6904C623.946 66.3688 620.834 72.474 619.18 82.0059C617.525 91.5378 617.25 100.912 618.353 110.129Z" fill="#DB4437"/>
<path d="M325.188 176.892C325.03 175.001 324.006 173.583 322.115 172.638C320.303 171.692 318.767 170.747 317.507 169.802C308.448 163.657 302.027 156.174 298.246 147.351C294.544 138.449 292.456 129.035 291.983 119.109C291.038 96.6582 297.104 79.5638 310.181 67.8262C314.828 63.651 320.185 60.2637 326.251 57.6641C332.317 54.9857 338.54 52.8193 344.921 51.165C346.89 50.7712 348.348 51.7559 349.293 54.1191L366.309 94.0586C367.096 96.1855 366.821 97.5247 365.481 98.0762H365.245L316.798 116.864C315.853 117.337 315.459 118.085 315.616 119.109C319.476 136.598 325.936 147.823 334.995 152.786C344.054 157.67 353.074 158.379 362.055 154.913C363.63 154.204 364.615 154.322 365.009 155.268C365.481 156.213 365.206 156.922 364.182 157.395C357.801 160.624 351.696 163.933 345.866 167.32C340.116 170.708 334.956 174.253 330.387 177.955C329.678 178.428 328.614 178.585 327.196 178.428C325.857 178.27 325.188 177.758 325.188 176.892ZM314.198 110.129C314.277 110.759 314.553 111.271 315.025 111.665C315.498 111.98 316.089 111.98 316.798 111.665L341.967 102.212C343.148 101.739 343.503 100.912 343.03 99.7305L328.614 64.3994C327.905 62.6663 326.487 62.43 324.36 63.6904C319.791 66.3688 316.68 72.474 315.025 82.0059C313.371 91.5378 313.095 100.912 314.198 110.129ZM795.244 8.98047C789.021 10.7135 785.988 14.3766 786.146 19.9697C786.224 23.5146 788.233 26.8232 792.172 29.8955C796.189 32.889 800.877 34.8978 806.233 35.9219C806.312 35.9219 806.391 35.9613 806.47 36.04C823.013 42.1846 837.389 50.2197 849.6 60.1455C861.889 70.0713 868.86 84.4873 870.515 103.394V103.748C868.86 117.928 865.434 129.744 860.234 139.197C855.035 148.65 848.891 155.858 841.801 160.821L841.683 161.058C838.374 163.894 834.475 166.414 829.984 168.62C825.494 170.826 821.516 173.11 818.05 175.474C815.844 176.97 814.426 176.97 813.796 175.474C809.384 164.996 797.214 157.001 777.283 151.486C776.102 151.25 775.471 150.659 775.393 149.714C775.314 148.769 775.747 148.099 776.692 147.705C781.655 145.814 784.137 140.576 784.137 131.989L783.9 82.833C783.9 80.0758 785.161 78.776 787.682 78.9336C795.559 79.9577 803.437 77.2793 811.314 70.8984C811.787 70.5833 812.023 69.9925 812.023 69.126C811.866 68.4958 811.472 68.0231 810.842 67.708C807.848 66.4476 804.855 65.2266 801.861 64.0449C798.868 62.7845 795.953 61.4453 793.117 60.0273C785.791 56.7188 780.355 52.4255 776.811 47.1475C773.344 41.8695 771.296 36.6309 770.666 31.4316V30.8408C772.635 15.7946 780.198 7.40495 793.354 5.67188C795.402 5.35677 796.505 5.75065 796.662 6.85352C796.898 7.95638 796.426 8.66536 795.244 8.98047ZM818.286 71.0166C817.577 70.7015 816.908 70.7803 816.277 71.2529L810.724 75.625C809.148 76.8066 808.36 78.2246 808.36 79.8789L808.833 138.252C808.833 139.434 809.306 140.261 810.251 140.733L835.774 155.74C837.823 157.001 839.713 156.528 841.446 154.322C848.536 144.318 851.254 131.044 849.6 114.501C848.024 97.8792 841.21 85.3145 829.157 76.8066C826.951 75.3099 823.328 73.3799 818.286 71.0166Z" fill="#F4B400"/>
<path d="M488.372 18.1973C487.348 16.7005 487.427 15.5583 488.608 14.7705C489.79 13.904 490.972 14.1797 492.153 15.5977C495.619 19.9303 498.416 24.5781 500.543 29.541C500.779 30.3288 501.331 30.7227 502.197 30.7227C502.906 30.8802 503.536 30.5651 504.088 29.7773C508.657 21.5846 515.826 15.2826 525.594 10.8711C535.441 6.38086 545.406 4.56901 555.489 5.43555C557.537 5.51432 558.562 6.34147 558.562 7.91699C558.562 9.49251 557.577 10.2015 555.607 10.0439C547.336 9.49251 540.128 11.3831 533.983 15.7158C527.839 20.0485 524.806 28.3988 524.885 40.7666L525.121 67.2354C525.121 68.0231 525.436 68.6139 526.066 69.0078C526.697 69.3229 527.327 69.2835 527.957 68.8896C532.29 66.5264 536.622 63.9268 540.955 61.0908C545.367 58.2549 549.424 55.0645 553.126 51.5195C556.041 48.6048 557.695 49.1169 558.089 53.0557C558.404 55.9704 559.625 58.57 561.752 60.8545C563.879 63.139 565.848 65.3841 567.66 67.5898C578.295 81.1393 583.77 95.7917 584.085 111.547C584.636 134.707 576.483 155.189 559.625 172.992C542.767 190.717 527.445 204.266 513.659 213.641C511.769 214.98 510.351 215.177 509.405 214.231C508.539 213.365 508.814 212.341 510.232 211.159C521.34 201.312 532.526 190.559 543.791 178.9C555.135 167.242 560.295 148.769 559.271 123.481C558.798 113.556 557.262 104.221 554.662 95.4766C552.141 86.6536 547.493 79.3275 540.719 73.498C537.253 70.5833 532.447 70.6227 526.303 73.6162C525.594 73.8525 525.239 74.4434 525.239 75.3887L525.712 146.76C525.712 153.141 528.272 155.78 533.393 154.677C534.495 154.362 535.48 153.771 536.347 152.904C537.213 152.038 538.159 151.289 539.183 150.659C540.285 149.95 541.27 149.99 542.137 150.777C543.003 151.565 543.003 152.392 542.137 153.259C538.277 157.513 534.377 161.451 530.438 165.075C526.5 168.699 523.467 172.677 521.34 177.01C520.395 178.9 518.977 178.9 517.086 177.01C510.075 169.447 502.434 163.775 494.162 159.994C491.484 158.576 491.287 157.276 493.571 156.095C498.613 154.362 501.094 149.162 501.016 140.497L500.779 61.5635C500.701 50.9287 499.479 42.224 497.116 35.4492C494.832 28.6745 491.917 22.9238 488.372 18.1973Z" fill="#0F9D58"/>
<path d="M723.164 84.96L723.046 142.27C723.046 144.79 723.676 146.405 724.937 147.114L733.444 152.077C735.256 153.18 738.013 151.25 741.716 146.287C742.504 145.263 743.488 145.066 744.67 145.696C745.852 146.248 745.852 147.232 744.67 148.65C736.398 157.867 730.057 166.926 725.646 175.828C724.306 177.64 722.849 177.64 721.273 175.828C716.862 170.708 712.726 166.808 708.866 164.13C705.085 161.451 699.492 159.246 692.087 157.513C690.669 157.119 689.96 156.489 689.96 155.622C689.96 154.756 690.472 154.125 691.496 153.731C696.774 152.865 699.374 148.335 699.295 140.143V90.1592C699.295 82.124 697.798 77.2005 694.805 75.3887C691.339 73.1042 688.503 73.9313 686.297 77.8701C685.43 79.5244 684.446 79.9183 683.343 79.0518C682.24 78.1852 682.279 76.8066 683.461 74.916C685.745 71.2923 687.912 67.5898 689.96 63.8086C692.087 60.0273 694.253 56.2461 696.459 52.4648C697.798 50.1016 699.571 49.6683 701.776 51.165C713.356 56.7581 720.289 63.848 722.573 72.4346C722.81 73.2223 723.282 73.7344 723.991 73.9707C724.7 74.1283 725.33 73.8525 725.882 73.1436L744.079 52.2285C744.552 51.7559 745.103 51.5589 745.733 51.6377C746.364 51.6377 746.876 51.9528 747.27 52.583L759.677 76.334C759.992 77.043 759.913 77.7126 759.44 78.3428L745.261 95.3584C744.709 95.9098 744.079 96.1462 743.37 96.0674C742.74 95.9886 742.307 95.6341 742.07 95.0039L732.499 77.2793C732.184 76.8066 731.672 76.5309 730.963 76.4521C730.333 76.2946 729.742 76.4915 729.19 77.043L723.637 83.7783C723.322 84.0934 723.164 84.4873 723.164 84.96Z" fill="black"/>
</svg>
